<mxfile host="65bd71144e" modified="2020-11-03T05:18:01.211Z" agent="5.0 (Macintosh; Intel Mac OS X 10_14_6) AppleWebKit/537.36 (KHTML, like Gecko) Code/1.50.1 Chrome/83.0.4103.122 Electron/9.2.1 Safari/537.36" etag="_ZDAMhtUz_eNxHUGjcqG" version="13.6.5">
    <diagram id="owYd7UhCe0Ccg1vRwhA4" name="Page-1">
        <mxGraphModel dx="1109" dy="374" grid="1" gridSize="10" guides="1" tooltips="1" connect="1" arrows="1" fold="1" page="1" pageScale="1" pageWidth="827" pageHeight="1169" math="0" shadow="0">
            <root>
                <mxCell id="0"/>
                <mxCell id="1" parent="0"/>
                <mxCell id="gQxoLfJ7K_q1VLz0toJi-52" style="edgeStyle=orthogonalEdgeStyle;rounded=0;orthogonalLoop=1;jettySize=auto;html=1;exitX=0.5;exitY=1;exitDx=0;exitDy=0;entryX=0.5;entryY=0;entryDx=0;entryDy=0;entryPerimeter=0;startArrow=classic;startFill=1;dashed=1;" parent="1" source="gQxoLfJ7K_q1VLz0toJi-26" target="gQxoLfJ7K_q1VLz0toJi-29" edge="1">
                    <mxGeometry relative="1" as="geometry">
                        <Array as="points">
                            <mxPoint x="730" y="760"/>
                            <mxPoint x="275" y="760"/>
                        </Array>
                    </mxGeometry>
                </mxCell>
                <mxCell id="gQxoLfJ7K_q1VLz0toJi-65" style="edgeStyle=orthogonalEdgeStyle;rounded=0;orthogonalLoop=1;jettySize=auto;html=1;exitX=0.75;exitY=1;exitDx=0;exitDy=0;entryX=0.75;entryY=0;entryDx=0;entryDy=0;startArrow=classic;startFill=1;" parent="1" source="gQxoLfJ7K_q1VLz0toJi-26" target="gQxoLfJ7K_q1VLz0toJi-45" edge="1">
                    <mxGeometry relative="1" as="geometry"/>
                </mxCell>
                <mxCell id="JlBnlz1FGv-Yz-Kf7tT8-10" style="edgeStyle=orthogonalEdgeStyle;rounded=0;orthogonalLoop=1;jettySize=auto;html=1;exitX=1;exitY=0.25;exitDx=0;exitDy=0;entryX=0;entryY=0;entryDx=0;entryDy=52.5;entryPerimeter=0;startArrow=classic;startFill=1;strokeColor=#000033;" parent="1" source="gQxoLfJ7K_q1VLz0toJi-26" target="JlBnlz1FGv-Yz-Kf7tT8-8" edge="1">
                    <mxGeometry relative="1" as="geometry"/>
                </mxCell>
                <mxCell id="JlBnlz1FGv-Yz-Kf7tT8-11" style="edgeStyle=orthogonalEdgeStyle;rounded=0;orthogonalLoop=1;jettySize=auto;html=1;exitX=1;exitY=0.75;exitDx=0;exitDy=0;entryX=0;entryY=0;entryDx=0;entryDy=52.5;entryPerimeter=0;startArrow=classic;startFill=1;strokeColor=#000033;" parent="1" source="gQxoLfJ7K_q1VLz0toJi-26" target="JlBnlz1FGv-Yz-Kf7tT8-9" edge="1">
                    <mxGeometry relative="1" as="geometry"/>
                </mxCell>
                <mxCell id="gQxoLfJ7K_q1VLz0toJi-26" value="" style="rounded=0;whiteSpace=wrap;html=1;fillColor=#f5f5f5;strokeColor=#666666;fontColor=#333333;" parent="1" vertex="1">
                    <mxGeometry x="650" y="342.5" width="160" height="235" as="geometry"/>
                </mxCell>
                <mxCell id="gQxoLfJ7K_q1VLz0toJi-30" style="edgeStyle=orthogonalEdgeStyle;rounded=0;orthogonalLoop=1;jettySize=auto;html=1;exitX=0;exitY=0.5;exitDx=0;exitDy=0;entryX=1;entryY=0.5;entryDx=0;entryDy=0;startArrow=classic;startFill=1;" parent="1" source="gQxoLfJ7K_q1VLz0toJi-21" target="gQxoLfJ7K_q1VLz0toJi-16" edge="1">
                    <mxGeometry relative="1" as="geometry"/>
                </mxCell>
                <mxCell id="gQxoLfJ7K_q1VLz0toJi-31" style="edgeStyle=orthogonalEdgeStyle;rounded=0;orthogonalLoop=1;jettySize=auto;html=1;exitX=1;exitY=0.5;exitDx=0;exitDy=0;entryX=0;entryY=0.5;entryDx=0;entryDy=0;startArrow=classic;startFill=1;" parent="1" source="gQxoLfJ7K_q1VLz0toJi-21" target="gQxoLfJ7K_q1VLz0toJi-26" edge="1">
                    <mxGeometry relative="1" as="geometry"/>
                </mxCell>
                <mxCell id="gQxoLfJ7K_q1VLz0toJi-48" style="edgeStyle=orthogonalEdgeStyle;rounded=0;orthogonalLoop=1;jettySize=auto;html=1;exitX=1;exitY=0.75;exitDx=0;exitDy=0;startArrow=classic;startFill=1;" parent="1" source="gQxoLfJ7K_q1VLz0toJi-21" target="gQxoLfJ7K_q1VLz0toJi-47" edge="1">
                    <mxGeometry relative="1" as="geometry"/>
                </mxCell>
                <mxCell id="gQxoLfJ7K_q1VLz0toJi-54" style="edgeStyle=orthogonalEdgeStyle;rounded=0;orthogonalLoop=1;jettySize=auto;html=1;exitX=0.5;exitY=1;exitDx=0;exitDy=0;entryX=0.5;entryY=0;entryDx=0;entryDy=0;entryPerimeter=0;startArrow=classic;startFill=1;dashed=1;" parent="1" source="gQxoLfJ7K_q1VLz0toJi-21" target="gQxoLfJ7K_q1VLz0toJi-28" edge="1">
                    <mxGeometry relative="1" as="geometry">
                        <Array as="points">
                            <mxPoint x="475" y="700"/>
                            <mxPoint x="530" y="700"/>
                        </Array>
                    </mxGeometry>
                </mxCell>
                <mxCell id="JlBnlz1FGv-Yz-Kf7tT8-6" style="edgeStyle=orthogonalEdgeStyle;rounded=0;orthogonalLoop=1;jettySize=auto;html=1;exitX=0.25;exitY=1;exitDx=0;exitDy=0;entryX=0.5;entryY=0;entryDx=0;entryDy=0;entryPerimeter=0;startArrow=classic;startFill=1;strokeColor=#000000;" parent="1" source="gQxoLfJ7K_q1VLz0toJi-21" target="JlBnlz1FGv-Yz-Kf7tT8-4" edge="1">
                    <mxGeometry relative="1" as="geometry"/>
                </mxCell>
                <mxCell id="gQxoLfJ7K_q1VLz0toJi-21" value="" style="rounded=0;whiteSpace=wrap;html=1;fillColor=#f5f5f5;strokeColor=#666666;fontColor=#333333;" parent="1" vertex="1">
                    <mxGeometry x="400" y="350" width="150" height="200" as="geometry"/>
                </mxCell>
                <mxCell id="JlBnlz1FGv-Yz-Kf7tT8-3" style="edgeStyle=orthogonalEdgeStyle;rounded=0;orthogonalLoop=1;jettySize=auto;html=1;exitX=0;exitY=0.5;exitDx=0;exitDy=0;entryX=0.5;entryY=0;entryDx=0;entryDy=0;entryPerimeter=0;startArrow=classic;startFill=1;strokeColor=#000000;" parent="1" source="gQxoLfJ7K_q1VLz0toJi-16" target="JlBnlz1FGv-Yz-Kf7tT8-2" edge="1">
                    <mxGeometry relative="1" as="geometry"/>
                </mxCell>
                <mxCell id="JlBnlz1FGv-Yz-Kf7tT8-39" style="edgeStyle=orthogonalEdgeStyle;rounded=0;orthogonalLoop=1;jettySize=auto;html=1;exitX=0;exitY=0.75;exitDx=0;exitDy=0;entryX=1;entryY=0.5;entryDx=0;entryDy=0;entryPerimeter=0;startArrow=classic;startFill=1;strokeColor=#000033;dashed=1;" edge="1" parent="1" source="gQxoLfJ7K_q1VLz0toJi-16" target="JlBnlz1FGv-Yz-Kf7tT8-32">
                    <mxGeometry relative="1" as="geometry"/>
                </mxCell>
                <mxCell id="gQxoLfJ7K_q1VLz0toJi-16" value="" style="rounded=0;whiteSpace=wrap;html=1;fillColor=#f5f5f5;strokeColor=#666666;fontColor=#333333;" parent="1" vertex="1">
                    <mxGeometry x="200" y="350" width="150" height="250" as="geometry"/>
                </mxCell>
                <mxCell id="gQxoLfJ7K_q1VLz0toJi-33" style="edgeStyle=orthogonalEdgeStyle;rounded=0;orthogonalLoop=1;jettySize=auto;html=1;exitX=0.25;exitY=1;exitDx=0;exitDy=0;startArrow=classic;startFill=1;strokeColor=#007FFF;" parent="1" source="gQxoLfJ7K_q1VLz0toJi-1" target="gQxoLfJ7K_q1VLz0toJi-11" edge="1">
                    <mxGeometry relative="1" as="geometry"/>
                </mxCell>
                <mxCell id="gQxoLfJ7K_q1VLz0toJi-34" style="edgeStyle=orthogonalEdgeStyle;rounded=0;orthogonalLoop=1;jettySize=auto;html=1;exitX=0.5;exitY=1;exitDx=0;exitDy=0;entryX=0.5;entryY=0;entryDx=0;entryDy=0;startArrow=classic;startFill=1;strokeColor=#007FFF;" parent="1" source="gQxoLfJ7K_q1VLz0toJi-1" target="gQxoLfJ7K_q1VLz0toJi-16" edge="1">
                    <mxGeometry relative="1" as="geometry"/>
                </mxCell>
                <mxCell id="gQxoLfJ7K_q1VLz0toJi-35" style="edgeStyle=orthogonalEdgeStyle;rounded=0;orthogonalLoop=1;jettySize=auto;html=1;exitX=0.5;exitY=1;exitDx=0;exitDy=0;entryX=0.5;entryY=0;entryDx=0;entryDy=0;startArrow=classic;startFill=1;strokeColor=#007FFF;" parent="1" source="gQxoLfJ7K_q1VLz0toJi-1" target="gQxoLfJ7K_q1VLz0toJi-21" edge="1">
                    <mxGeometry relative="1" as="geometry"/>
                </mxCell>
                <mxCell id="gQxoLfJ7K_q1VLz0toJi-36" style="edgeStyle=orthogonalEdgeStyle;rounded=0;orthogonalLoop=1;jettySize=auto;html=1;exitX=0.5;exitY=1;exitDx=0;exitDy=0;startArrow=classic;startFill=1;strokeColor=#007FFF;" parent="1" edge="1">
                    <mxGeometry relative="1" as="geometry">
                        <mxPoint x="420" y="302" as="sourcePoint"/>
                        <mxPoint x="680" y="347" as="targetPoint"/>
                        <Array as="points">
                            <mxPoint x="420" y="325"/>
                            <mxPoint x="680" y="325"/>
                        </Array>
                    </mxGeometry>
                </mxCell>
                <mxCell id="gQxoLfJ7K_q1VLz0toJi-1" value="api layer" style="rounded=0;whiteSpace=wrap;html=1;fillColor=#f5f5f5;strokeColor=#666666;fontColor=#333333;" parent="1" vertex="1">
                    <mxGeometry x="-160" y="240" width="1120" height="60" as="geometry"/>
                </mxCell>
                <mxCell id="gQxoLfJ7K_q1VLz0toJi-2" value="customer UI" style="shape=umlActor;verticalLabelPosition=bottom;verticalAlign=top;html=1;outlineConnect=0;" parent="1" vertex="1">
                    <mxGeometry x="180" y="20" width="30" height="60" as="geometry"/>
                </mxCell>
                <mxCell id="gQxoLfJ7K_q1VLz0toJi-3" value="operator UI" style="shape=umlActor;verticalLabelPosition=bottom;verticalAlign=top;html=1;outlineConnect=0;" parent="1" vertex="1">
                    <mxGeometry x="414" y="20" width="30" height="60" as="geometry"/>
                </mxCell>
                <mxCell id="gQxoLfJ7K_q1VLz0toJi-4" value="admin UI" style="shape=umlActor;verticalLabelPosition=bottom;verticalAlign=top;html=1;outlineConnect=0;" parent="1" vertex="1">
                    <mxGeometry x="630" y="20" width="30" height="60" as="geometry"/>
                </mxCell>
                <mxCell id="gQxoLfJ7K_q1VLz0toJi-6" value="" style="endArrow=classic;startArrow=classic;html=1;entryX=0.25;entryY=0;entryDx=0;entryDy=0;" parent="1" target="gQxoLfJ7K_q1VLz0toJi-1" edge="1">
                    <mxGeometry width="50" height="50" relative="1" as="geometry">
                        <mxPoint x="200" y="100" as="sourcePoint"/>
                        <mxPoint x="440" y="240" as="targetPoint"/>
                    </mxGeometry>
                </mxCell>
                <mxCell id="gQxoLfJ7K_q1VLz0toJi-9" value="" style="endArrow=classic;startArrow=classic;html=1;exitX=0.75;exitY=0;exitDx=0;exitDy=0;" parent="1" source="gQxoLfJ7K_q1VLz0toJi-1" edge="1">
                    <mxGeometry width="50" height="50" relative="1" as="geometry">
                        <mxPoint x="540" y="210" as="sourcePoint"/>
                        <mxPoint x="640" y="100" as="targetPoint"/>
                    </mxGeometry>
                </mxCell>
                <mxCell id="gQxoLfJ7K_q1VLz0toJi-10" value="" style="endArrow=classic;startArrow=classic;html=1;exitX=0.5;exitY=0;exitDx=0;exitDy=0;" parent="1" source="gQxoLfJ7K_q1VLz0toJi-1" edge="1">
                    <mxGeometry width="50" height="50" relative="1" as="geometry">
                        <mxPoint x="404" y="200" as="sourcePoint"/>
                        <mxPoint x="424" y="100" as="targetPoint"/>
                    </mxGeometry>
                </mxCell>
                <mxCell id="JlBnlz1FGv-Yz-Kf7tT8-23" style="edgeStyle=orthogonalEdgeStyle;rounded=0;orthogonalLoop=1;jettySize=auto;html=1;exitX=1;exitY=0.5;exitDx=0;exitDy=0;entryX=0.004;entryY=0.119;entryDx=0;entryDy=0;entryPerimeter=0;startArrow=classic;startFill=1;strokeColor=#000033;" parent="1" source="gQxoLfJ7K_q1VLz0toJi-11" target="gQxoLfJ7K_q1VLz0toJi-16" edge="1">
                    <mxGeometry relative="1" as="geometry"/>
                </mxCell>
                <mxCell id="gQxoLfJ7K_q1VLz0toJi-11" value="authentication&lt;br&gt;&amp;nbsp;and authorization" style="rounded=0;whiteSpace=wrap;html=1;fillColor=#f5f5f5;strokeColor=#666666;fontColor=#333333;" parent="1" vertex="1">
                    <mxGeometry x="40" y="350" width="120" height="60" as="geometry"/>
                </mxCell>
                <mxCell id="gQxoLfJ7K_q1VLz0toJi-12" value="admin" style="rounded=1;whiteSpace=wrap;html=1;" parent="1" vertex="1">
                    <mxGeometry x="214" y="430" width="120" height="60" as="geometry"/>
                </mxCell>
                <mxCell id="gQxoLfJ7K_q1VLz0toJi-13" value="customer &lt;br&gt;management" style="rounded=1;whiteSpace=wrap;html=1;" parent="1" vertex="1">
                    <mxGeometry x="214" y="490" width="120" height="60" as="geometry"/>
                </mxCell>
                <mxCell id="gQxoLfJ7K_q1VLz0toJi-14" value="operators&lt;br&gt;management" style="rounded=1;whiteSpace=wrap;html=1;" parent="1" vertex="1">
                    <mxGeometry x="214" y="370" width="120" height="60" as="geometry"/>
                </mxCell>
                <mxCell id="gQxoLfJ7K_q1VLz0toJi-17" style="edgeStyle=orthogonalEdgeStyle;rounded=0;orthogonalLoop=1;jettySize=auto;html=1;exitX=0.5;exitY=1;exitDx=0;exitDy=0;startArrow=classic;startFill=1;" parent="1" source="gQxoLfJ7K_q1VLz0toJi-16" target="gQxoLfJ7K_q1VLz0toJi-16" edge="1">
                    <mxGeometry relative="1" as="geometry"/>
                </mxCell>
                <mxCell id="gQxoLfJ7K_q1VLz0toJi-18" value="people management" style="text;html=1;strokeColor=none;fillColor=none;align=center;verticalAlign=middle;whiteSpace=wrap;rounded=0;" parent="1" vertex="1">
                    <mxGeometry x="230" y="565" width="90" height="20" as="geometry"/>
                </mxCell>
                <mxCell id="gQxoLfJ7K_q1VLz0toJi-19" value="meal booking &amp;amp;&lt;br&gt;fulfilment" style="rounded=1;whiteSpace=wrap;html=1;" parent="1" vertex="1">
                    <mxGeometry x="415" y="370" width="120" height="60" as="geometry"/>
                </mxCell>
                <mxCell id="gQxoLfJ7K_q1VLz0toJi-20" value="feedback" style="rounded=1;whiteSpace=wrap;html=1;" parent="1" vertex="1">
                    <mxGeometry x="415" y="430" width="120" height="60" as="geometry"/>
                </mxCell>
                <mxCell id="gQxoLfJ7K_q1VLz0toJi-22" value="order mgmt" style="text;html=1;strokeColor=none;fillColor=none;align=center;verticalAlign=middle;whiteSpace=wrap;rounded=0;" parent="1" vertex="1">
                    <mxGeometry x="450" y="520" width="40" height="20" as="geometry"/>
                </mxCell>
                <mxCell id="gQxoLfJ7K_q1VLz0toJi-23" value="kitchen &lt;br&gt;management" style="rounded=1;whiteSpace=wrap;html=1;" parent="1" vertex="1">
                    <mxGeometry x="670" y="417.5" width="120" height="60" as="geometry"/>
                </mxCell>
                <mxCell id="gQxoLfJ7K_q1VLz0toJi-24" value="pricing &lt;br&gt;management" style="rounded=1;whiteSpace=wrap;html=1;" parent="1" vertex="1">
                    <mxGeometry x="670" y="477.5" width="120" height="60" as="geometry"/>
                </mxCell>
                <mxCell id="gQxoLfJ7K_q1VLz0toJi-25" value="product catalog" style="rounded=1;whiteSpace=wrap;html=1;" parent="1" vertex="1">
                    <mxGeometry x="670" y="357.5" width="120" height="60" as="geometry"/>
                </mxCell>
                <mxCell id="gQxoLfJ7K_q1VLz0toJi-27" value="product&amp;nbsp; mgmt" style="text;html=1;strokeColor=none;fillColor=none;align=center;verticalAlign=middle;whiteSpace=wrap;rounded=0;" parent="1" vertex="1">
                    <mxGeometry x="710" y="547.5" width="40" height="20" as="geometry"/>
                </mxCell>
                <mxCell id="gQxoLfJ7K_q1VLz0toJi-59" style="edgeStyle=orthogonalEdgeStyle;rounded=0;orthogonalLoop=1;jettySize=auto;html=1;exitX=1;exitY=0.5;exitDx=0;exitDy=0;exitPerimeter=0;entryX=0;entryY=0.5;entryDx=0;entryDy=0;startArrow=classic;startFill=1;dashed=1;" parent="1" source="gQxoLfJ7K_q1VLz0toJi-28" target="gQxoLfJ7K_q1VLz0toJi-42" edge="1">
                    <mxGeometry relative="1" as="geometry"/>
                </mxCell>
                <mxCell id="gQxoLfJ7K_q1VLz0toJi-60" style="edgeStyle=orthogonalEdgeStyle;rounded=0;orthogonalLoop=1;jettySize=auto;html=1;exitX=1;exitY=0.5;exitDx=0;exitDy=0;exitPerimeter=0;entryX=0;entryY=0.5;entryDx=0;entryDy=0;startArrow=classic;startFill=1;dashed=1;" parent="1" source="gQxoLfJ7K_q1VLz0toJi-28" target="gQxoLfJ7K_q1VLz0toJi-43" edge="1">
                    <mxGeometry relative="1" as="geometry"/>
                </mxCell>
                <mxCell id="gQxoLfJ7K_q1VLz0toJi-61" style="edgeStyle=orthogonalEdgeStyle;rounded=0;orthogonalLoop=1;jettySize=auto;html=1;exitX=1;exitY=0.5;exitDx=0;exitDy=0;exitPerimeter=0;entryX=0;entryY=0.5;entryDx=0;entryDy=0;startArrow=classic;startFill=1;dashed=1;" parent="1" source="gQxoLfJ7K_q1VLz0toJi-28" target="gQxoLfJ7K_q1VLz0toJi-45" edge="1">
                    <mxGeometry relative="1" as="geometry"/>
                </mxCell>
                <mxCell id="gQxoLfJ7K_q1VLz0toJi-28" value="transactions&lt;br&gt;queue" style="strokeWidth=2;html=1;shape=mxgraph.flowchart.direct_data;whiteSpace=wrap;fillColor=#fff2cc;strokeColor=#d6b656;" parent="1" vertex="1">
                    <mxGeometry x="450" y="830" width="150" height="50" as="geometry"/>
                </mxCell>
                <mxCell id="gQxoLfJ7K_q1VLz0toJi-46" style="edgeStyle=orthogonalEdgeStyle;rounded=0;orthogonalLoop=1;jettySize=auto;html=1;exitX=0.5;exitY=0;exitDx=0;exitDy=0;exitPerimeter=0;entryX=0.5;entryY=1;entryDx=0;entryDy=0;startArrow=classic;startFill=1;dashed=1;" parent="1" source="gQxoLfJ7K_q1VLz0toJi-29" target="gQxoLfJ7K_q1VLz0toJi-16" edge="1">
                    <mxGeometry relative="1" as="geometry"/>
                </mxCell>
                <mxCell id="gQxoLfJ7K_q1VLz0toJi-64" style="edgeStyle=orthogonalEdgeStyle;rounded=0;orthogonalLoop=1;jettySize=auto;html=1;exitX=0.91;exitY=0;exitDx=0;exitDy=0;exitPerimeter=0;entryX=0.5;entryY=0;entryDx=0;entryDy=0;startArrow=classic;startFill=1;dashed=1;" parent="1" source="gQxoLfJ7K_q1VLz0toJi-29" target="gQxoLfJ7K_q1VLz0toJi-45" edge="1">
                    <mxGeometry relative="1" as="geometry">
                        <Array as="points">
                            <mxPoint x="328" y="800"/>
                            <mxPoint x="740" y="800"/>
                        </Array>
                    </mxGeometry>
                </mxCell>
                <mxCell id="gQxoLfJ7K_q1VLz0toJi-29" value="notifications&amp;nbsp;&lt;br&gt;queue" style="strokeWidth=2;html=1;shape=mxgraph.flowchart.direct_data;whiteSpace=wrap;fillColor=#fff2cc;strokeColor=#d6b656;" parent="1" vertex="1">
                    <mxGeometry x="209" y="830" width="130" height="50" as="geometry"/>
                </mxCell>
                <mxCell id="gQxoLfJ7K_q1VLz0toJi-73" style="edgeStyle=orthogonalEdgeStyle;rounded=0;orthogonalLoop=1;jettySize=auto;html=1;exitX=0.5;exitY=1;exitDx=0;exitDy=0;entryX=0.5;entryY=1;entryDx=0;entryDy=0;entryPerimeter=0;startArrow=classic;startFill=1;dashed=1;" parent="1" source="gQxoLfJ7K_q1VLz0toJi-37" target="gQxoLfJ7K_q1VLz0toJi-28" edge="1">
                    <mxGeometry relative="1" as="geometry">
                        <Array as="points">
                            <mxPoint x="-90" y="940"/>
                            <mxPoint x="525" y="940"/>
                        </Array>
                    </mxGeometry>
                </mxCell>
                <mxCell id="JlBnlz1FGv-Yz-Kf7tT8-7" style="edgeStyle=orthogonalEdgeStyle;rounded=0;orthogonalLoop=1;jettySize=auto;html=1;exitX=1;exitY=0.5;exitDx=0;exitDy=0;startArrow=classic;startFill=1;strokeColor=#007FFF;" parent="1" source="gQxoLfJ7K_q1VLz0toJi-37" edge="1">
                    <mxGeometry relative="1" as="geometry">
                        <mxPoint x="20" y="305" as="targetPoint"/>
                        <Array as="points">
                            <mxPoint x="20" y="660"/>
                            <mxPoint x="20" y="305"/>
                        </Array>
                    </mxGeometry>
                </mxCell>
                <mxCell id="JlBnlz1FGv-Yz-Kf7tT8-19" style="edgeStyle=orthogonalEdgeStyle;rounded=0;orthogonalLoop=1;jettySize=auto;html=1;exitX=0.75;exitY=1;exitDx=0;exitDy=0;entryX=0;entryY=0.5;entryDx=0;entryDy=0;entryPerimeter=0;startArrow=classic;startFill=1;strokeColor=#000033;" parent="1" source="gQxoLfJ7K_q1VLz0toJi-37" target="JlBnlz1FGv-Yz-Kf7tT8-18" edge="1">
                    <mxGeometry relative="1" as="geometry"/>
                </mxCell>
                <mxCell id="JlBnlz1FGv-Yz-Kf7tT8-38" style="edgeStyle=orthogonalEdgeStyle;rounded=0;orthogonalLoop=1;jettySize=auto;html=1;exitX=1;exitY=0.75;exitDx=0;exitDy=0;entryX=0;entryY=0.5;entryDx=0;entryDy=0;startArrow=classic;startFill=1;strokeColor=#000033;" edge="1" parent="1" source="gQxoLfJ7K_q1VLz0toJi-37" target="JlBnlz1FGv-Yz-Kf7tT8-27">
                    <mxGeometry relative="1" as="geometry"/>
                </mxCell>
                <mxCell id="gQxoLfJ7K_q1VLz0toJi-37" value="sale front" style="rounded=0;whiteSpace=wrap;html=1;fillColor=#f5f5f5;strokeColor=#666666;fontColor=#333333;" parent="1" vertex="1">
                    <mxGeometry x="-150" y="630" width="120" height="60" as="geometry"/>
                </mxCell>
                <mxCell id="gQxoLfJ7K_q1VLz0toJi-69" style="edgeStyle=orthogonalEdgeStyle;rounded=0;orthogonalLoop=1;jettySize=auto;html=1;exitX=0;exitY=0;exitDx=35;exitDy=80;exitPerimeter=0;entryX=0.5;entryY=0;entryDx=0;entryDy=0;startArrow=classic;startFill=1;" parent="1" source="gQxoLfJ7K_q1VLz0toJi-39" target="gQxoLfJ7K_q1VLz0toJi-37" edge="1">
                    <mxGeometry relative="1" as="geometry"/>
                </mxCell>
                <mxCell id="gQxoLfJ7K_q1VLz0toJi-39" value="fridge" style="shape=cube;whiteSpace=wrap;html=1;boundedLbl=1;backgroundOutline=1;darkOpacity=0.05;darkOpacity2=0.1;size=10;" parent="1" vertex="1">
                    <mxGeometry x="-160" y="440" width="60" height="80" as="geometry"/>
                </mxCell>
                <mxCell id="gQxoLfJ7K_q1VLz0toJi-70" style="edgeStyle=orthogonalEdgeStyle;rounded=0;orthogonalLoop=1;jettySize=auto;html=1;exitX=0;exitY=0;exitDx=35;exitDy=80;exitPerimeter=0;startArrow=classic;startFill=1;" parent="1" source="gQxoLfJ7K_q1VLz0toJi-41" edge="1">
                    <mxGeometry relative="1" as="geometry">
                        <mxPoint x="-90" y="630" as="targetPoint"/>
                    </mxGeometry>
                </mxCell>
                <mxCell id="gQxoLfJ7K_q1VLz0toJi-41" value="kiosk" style="shape=cube;whiteSpace=wrap;html=1;boundedLbl=1;backgroundOutline=1;darkOpacity=0.05;darkOpacity2=0.1;size=10;" parent="1" vertex="1">
                    <mxGeometry x="-90" y="440" width="60" height="80" as="geometry"/>
                </mxCell>
                <mxCell id="gQxoLfJ7K_q1VLz0toJi-42" value="accounting" style="rounded=0;whiteSpace=wrap;html=1;fillColor=#f5f5f5;strokeColor=#666666;fontColor=#333333;" parent="1" vertex="1">
                    <mxGeometry x="680" y="1030" width="120" height="60" as="geometry"/>
                </mxCell>
                <mxCell id="gQxoLfJ7K_q1VLz0toJi-43" value="reporting" style="rounded=0;whiteSpace=wrap;html=1;glass=0;fillColor=#f5f5f5;strokeColor=#666666;fontColor=#333333;" parent="1" vertex="1">
                    <mxGeometry x="680" y="1130" width="120" height="60" as="geometry"/>
                </mxCell>
                <mxCell id="JlBnlz1FGv-Yz-Kf7tT8-13" style="edgeStyle=orthogonalEdgeStyle;rounded=0;orthogonalLoop=1;jettySize=auto;html=1;exitX=1;exitY=0.5;exitDx=0;exitDy=0;entryX=0;entryY=0;entryDx=0;entryDy=52.5;entryPerimeter=0;startArrow=classic;startFill=1;strokeColor=#000033;" parent="1" source="gQxoLfJ7K_q1VLz0toJi-45" target="JlBnlz1FGv-Yz-Kf7tT8-12" edge="1">
                    <mxGeometry relative="1" as="geometry"/>
                </mxCell>
                <mxCell id="gQxoLfJ7K_q1VLz0toJi-45" value="inventory&lt;br&gt;tracker" style="rounded=0;whiteSpace=wrap;html=1;fillColor=#f5f5f5;strokeColor=#666666;fontColor=#333333;" parent="1" vertex="1">
                    <mxGeometry x="680" y="930" width="120" height="60" as="geometry"/>
                </mxCell>
                <mxCell id="gQxoLfJ7K_q1VLz0toJi-47" value="payments" style="rounded=0;whiteSpace=wrap;html=1;fillColor=#f5f5f5;strokeColor=#666666;fontColor=#333333;" parent="1" vertex="1">
                    <mxGeometry x="510" y="620" width="120" height="60" as="geometry"/>
                </mxCell>
                <mxCell id="gQxoLfJ7K_q1VLz0toJi-67" value="kitchen admin UI" style="shape=umlActor;verticalLabelPosition=bottom;verticalAlign=top;html=1;outlineConnect=0;align=center;" parent="1" vertex="1">
                    <mxGeometry x="505" y="20" width="30" height="60" as="geometry"/>
                </mxCell>
                <mxCell id="gQxoLfJ7K_q1VLz0toJi-77" style="edgeStyle=orthogonalEdgeStyle;rounded=0;orthogonalLoop=1;jettySize=auto;html=1;exitX=0.75;exitY=0;exitDx=0;exitDy=0;entryX=0;entryY=0.5;entryDx=0;entryDy=0;startArrow=classic;startFill=1;" parent="1" source="gQxoLfJ7K_q1VLz0toJi-76" target="gQxoLfJ7K_q1VLz0toJi-45" edge="1">
                    <mxGeometry relative="1" as="geometry"/>
                </mxCell>
                <mxCell id="gQxoLfJ7K_q1VLz0toJi-76" value="location service" style="rounded=0;whiteSpace=wrap;html=1;glass=0;align=center;fillColor=#f5f5f5;strokeColor=#666666;fontColor=#333333;" parent="1" vertex="1">
                    <mxGeometry x="490" y="1030" width="120" height="60" as="geometry"/>
                </mxCell>
                <mxCell id="JlBnlz1FGv-Yz-Kf7tT8-2" value="mongo" style="shape=cylinder3;whiteSpace=wrap;html=1;boundedLbl=1;backgroundOutline=1;size=15;rounded=0;glass=0;align=center;" parent="1" vertex="1">
                    <mxGeometry x="80" y="510" width="60" height="80" as="geometry"/>
                </mxCell>
                <mxCell id="JlBnlz1FGv-Yz-Kf7tT8-4" value="rdbms" style="shape=cylinder3;whiteSpace=wrap;html=1;boundedLbl=1;backgroundOutline=1;size=15;rounded=0;glass=0;align=center;" parent="1" vertex="1">
                    <mxGeometry x="390" y="610" width="60" height="80" as="geometry"/>
                </mxCell>
                <mxCell id="JlBnlz1FGv-Yz-Kf7tT8-8" value="elastic search" style="shape=cylinder3;whiteSpace=wrap;html=1;boundedLbl=1;backgroundOutline=1;size=15;rounded=0;glass=0;align=center;" parent="1" vertex="1">
                    <mxGeometry x="860" y="349" width="60" height="80" as="geometry"/>
                </mxCell>
                <mxCell id="JlBnlz1FGv-Yz-Kf7tT8-9" value="datastore" style="shape=cylinder3;whiteSpace=wrap;html=1;boundedLbl=1;backgroundOutline=1;size=15;rounded=0;glass=0;align=center;" parent="1" vertex="1">
                    <mxGeometry x="860" y="497.5" width="60" height="80" as="geometry"/>
                </mxCell>
                <mxCell id="JlBnlz1FGv-Yz-Kf7tT8-12" value="rdbms" style="shape=cylinder3;whiteSpace=wrap;html=1;boundedLbl=1;backgroundOutline=1;size=15;rounded=0;glass=0;align=center;" parent="1" vertex="1">
                    <mxGeometry x="840" y="907" width="80" height="73" as="geometry"/>
                </mxCell>
                <mxCell id="JlBnlz1FGv-Yz-Kf7tT8-15" value="" style="edgeStyle=orthogonalEdgeStyle;rounded=0;orthogonalLoop=1;jettySize=auto;html=1;startArrow=classic;startFill=1;strokeColor=#000033;" parent="1" source="JlBnlz1FGv-Yz-Kf7tT8-14" target="gQxoLfJ7K_q1VLz0toJi-43" edge="1">
                    <mxGeometry relative="1" as="geometry"/>
                </mxCell>
                <mxCell id="JlBnlz1FGv-Yz-Kf7tT8-14" value="data &lt;br&gt;warehouse" style="shape=cylinder3;whiteSpace=wrap;html=1;boundedLbl=1;backgroundOutline=1;size=15;rounded=0;glass=0;align=center;" parent="1" vertex="1">
                    <mxGeometry x="840" y="1120" width="80" height="80" as="geometry"/>
                </mxCell>
                <mxCell id="JlBnlz1FGv-Yz-Kf7tT8-17" value="" style="edgeStyle=orthogonalEdgeStyle;rounded=0;orthogonalLoop=1;jettySize=auto;html=1;startArrow=classic;startFill=1;strokeColor=#000033;" parent="1" source="JlBnlz1FGv-Yz-Kf7tT8-16" target="gQxoLfJ7K_q1VLz0toJi-42" edge="1">
                    <mxGeometry relative="1" as="geometry"/>
                </mxCell>
                <mxCell id="JlBnlz1FGv-Yz-Kf7tT8-16" value="datastore" style="shape=cylinder3;whiteSpace=wrap;html=1;boundedLbl=1;backgroundOutline=1;size=15;rounded=0;glass=0;align=center;" parent="1" vertex="1">
                    <mxGeometry x="840" y="1023.5" width="80" height="73" as="geometry"/>
                </mxCell>
                <mxCell id="JlBnlz1FGv-Yz-Kf7tT8-18" value="datastore" style="shape=cylinder3;whiteSpace=wrap;html=1;boundedLbl=1;backgroundOutline=1;size=15;rounded=0;glass=0;align=center;" parent="1" vertex="1">
                    <mxGeometry x="-40" y="740" width="60" height="80" as="geometry"/>
                </mxCell>
                <mxCell id="JlBnlz1FGv-Yz-Kf7tT8-24" value="" style="endArrow=classic;startArrow=classic;html=1;strokeColor=#000033;exitX=0.625;exitY=0;exitDx=0;exitDy=0;exitPerimeter=0;" parent="1" source="gQxoLfJ7K_q1VLz0toJi-1" edge="1">
                    <mxGeometry width="50" height="50" relative="1" as="geometry">
                        <mxPoint x="380" y="270" as="sourcePoint"/>
                        <mxPoint x="520" y="100" as="targetPoint"/>
                    </mxGeometry>
                </mxCell>
                <mxCell id="JlBnlz1FGv-Yz-Kf7tT8-34" style="edgeStyle=orthogonalEdgeStyle;rounded=0;orthogonalLoop=1;jettySize=auto;html=1;exitX=0.5;exitY=1;exitDx=0;exitDy=0;startArrow=classic;startFill=1;strokeColor=#000033;dashed=1;" edge="1" parent="1" source="JlBnlz1FGv-Yz-Kf7tT8-27" target="JlBnlz1FGv-Yz-Kf7tT8-32">
                    <mxGeometry relative="1" as="geometry"/>
                </mxCell>
                <mxCell id="JlBnlz1FGv-Yz-Kf7tT8-49" style="edgeStyle=orthogonalEdgeStyle;rounded=0;orthogonalLoop=1;jettySize=auto;html=1;exitX=0;exitY=0.25;exitDx=0;exitDy=0;entryX=0.161;entryY=1.043;entryDx=0;entryDy=0;entryPerimeter=0;startArrow=classic;startFill=1;strokeColor=#007FFF;" edge="1" parent="1" source="JlBnlz1FGv-Yz-Kf7tT8-27" target="gQxoLfJ7K_q1VLz0toJi-1">
                    <mxGeometry relative="1" as="geometry"/>
                </mxCell>
                <mxCell id="JlBnlz1FGv-Yz-Kf7tT8-27" value="shipments" style="rounded=0;whiteSpace=wrap;html=1;glass=0;align=center;fillColor=#f5f5f5;strokeColor=#666666;fontColor=#333333;" vertex="1" parent="1">
                    <mxGeometry x="40" y="680" width="120" height="60" as="geometry"/>
                </mxCell>
                <mxCell id="JlBnlz1FGv-Yz-Kf7tT8-35" style="edgeStyle=orthogonalEdgeStyle;rounded=0;orthogonalLoop=1;jettySize=auto;html=1;exitX=0.08;exitY=0;exitDx=0;exitDy=0;exitPerimeter=0;entryX=0.25;entryY=1;entryDx=0;entryDy=0;dashed=1;startArrow=classic;startFill=1;strokeColor=#000033;" edge="1" parent="1" source="JlBnlz1FGv-Yz-Kf7tT8-32" target="gQxoLfJ7K_q1VLz0toJi-26">
                    <mxGeometry relative="1" as="geometry">
                        <Array as="points">
                            <mxPoint x="37" y="780"/>
                            <mxPoint x="690" y="780"/>
                        </Array>
                    </mxGeometry>
                </mxCell>
                <mxCell id="JlBnlz1FGv-Yz-Kf7tT8-32" value="shipments status" style="strokeWidth=2;html=1;shape=mxgraph.flowchart.direct_data;whiteSpace=wrap;fillColor=#fff2cc;strokeColor=#d6b656;" vertex="1" parent="1">
                    <mxGeometry x="25" y="830" width="150" height="50" as="geometry"/>
                </mxCell>
                <mxCell id="JlBnlz1FGv-Yz-Kf7tT8-40" value="delivery agents" style="shape=umlActor;verticalLabelPosition=bottom;verticalAlign=top;html=1;outlineConnect=0;rounded=0;glass=0;align=center;" vertex="1" parent="1">
                    <mxGeometry x="780" y="20" width="30" height="60" as="geometry"/>
                </mxCell>
                <mxCell id="JlBnlz1FGv-Yz-Kf7tT8-45" value="" style="endArrow=classic;startArrow=classic;html=1;strokeColor=#000033;exitX=0.855;exitY=-0.076;exitDx=0;exitDy=0;exitPerimeter=0;" edge="1" parent="1" source="gQxoLfJ7K_q1VLz0toJi-1">
                    <mxGeometry width="50" height="50" relative="1" as="geometry">
                        <mxPoint x="430" y="360" as="sourcePoint"/>
                        <mxPoint x="795" y="100" as="targetPoint"/>
                    </mxGeometry>
                </mxCell>
            </root>
        </mxGraphModel>
    </diagram>
</mxfile>